PLOT

There are over 43 million hunters in the United States today. A great number of
hunters...a great number of deer. Statistically something was bound to go wrong.
 
http://www.imdb.com/title/tt0454843/


Encoded By .......: BigPerm1828
Runtime ..........: 1h 29mn
File Size ........: 1.03 GB
Resolution .......: 704x396
IMDb URL .........: http://www.imdb.com/title/tt0454843/
Language .........: English
Video
ID : 0
Format : MPEG-4 Visual
Format profile : Advanced Simple@L5
Format settings, BVOP : Yes
Format settings, QPel : No
Format settings, GMC : No warppoints
Format settings, Matrix : Default (H.263)
Codec ID : XVID
Codec ID/Hint : XviD
Duration : 1h 29mn
Bit rate : 60.9 Kbps
Width : 704 pixels
Height : 396 pixels
Display aspect ratio : 16:9
Frame rate : 29.970 fps
Color space : YUV
Chroma subsampling : 4:2:0
Bit depth : 8 bits
Scan type : Progressive
Compression mode : Lossy
Bits/(Pixel*Frame) : 0.007
Stream size : 39.1 MiB (4%)
Writing library : XviD 1.2.1 (UTC 2008-12-04)

Audio
ID : 1
Format : AC-3
Format/Info : Audio Coding 3
Codec ID : 2000
Duration : 1h 29mn
Bit rate mode : Constant
Bit rate : 448 Kbps
Channel(s) : 6 channels
Sampling rate : 48.0 KHz
Bit depth : 16 bits
Compression mode : Lossy
Stream size : 288 MiB (27%)
Alignment : Aligned on interleaves
 
http://leetleech.org/images/84968591223619953699.png
 
http://leetleech.org/images/77064973022944376639.png
 
http://leetleech.org/images/91230521065506414896.png
 
http://leetleech.org/images/52165481449099520618.png